# Blender v2.78 (sub 0) OBJ File: ''
# www.blender.org
mtllib Hemisphere.mtl
o Sphere
v 0.038060 0.980785 -0.191342
v 0.074658 0.923880 -0.375330
v 0.108386 0.831470 -0.544895
v 0.137950 0.707107 -0.693520
v 0.162212 0.555570 -0.815493
v 0.180240 0.382683 -0.906127
v 0.191342 0.195090 -0.961940
v 0.074658 0.980785 -0.180240
v 0.146447 0.923880 -0.353553
v 0.212608 0.831470 -0.513280
v 0.270598 0.707107 -0.653281
v 0.318190 0.555570 -0.768178
v 0.353553 0.382683 -0.853553
v 0.375330 0.195090 -0.906127
v 0.108387 0.980785 -0.162212
v 0.212608 0.923880 -0.318190
v 0.308658 0.831470 -0.461940
v 0.392848 0.707107 -0.587938
v 0.461940 0.555570 -0.691342
v 0.513280 0.382683 -0.768178
v 0.544895 0.195090 -0.815493
v 0.137950 0.980785 -0.137950
v 0.270598 0.923880 -0.270598
v 0.392848 0.831470 -0.392847
v 0.500000 0.707107 -0.500000
v 0.587938 0.555570 -0.587938
v 0.653282 0.382683 -0.653281
v 0.693520 0.195090 -0.693520
v 0.162212 0.980785 -0.108386
v 0.318190 0.923880 -0.212607
v 0.461940 0.831470 -0.308658
v 0.587938 0.707107 -0.392847
v 0.691342 0.555570 -0.461940
v 0.768178 0.382683 -0.513280
v 0.815493 0.195090 -0.544895
v 0.180240 0.980785 -0.074658
v 0.353554 0.923880 -0.146446
v 0.513280 0.831470 -0.212607
v 0.653282 0.707107 -0.270598
v 0.768178 0.555570 -0.318189
v 0.853554 0.382683 -0.353553
v 0.906128 0.195090 -0.375330
v 0.191342 0.980785 -0.038060
v 0.375331 0.923880 -0.074658
v 0.544895 0.831470 -0.108386
v 0.693520 0.707107 -0.137949
v 0.815493 0.555570 -0.162211
v 0.906128 0.382683 -0.180240
v 0.961940 0.195090 -0.191341
v 0.195091 0.980785 0.000000
v 0.382684 0.923880 0.000000
v 0.555570 0.831470 0.000000
v 0.707107 0.707107 0.000000
v 0.831470 0.555570 0.000000
v 0.923880 0.382683 0.000000
v 0.980785 0.195090 0.000000
v 0.191342 0.980785 0.038061
v 0.375331 0.923880 0.074658
v 0.544895 0.831470 0.108387
v 0.693520 0.707107 0.137950
v 0.815493 0.555570 0.162212
v 0.906128 0.382683 0.180240
v 0.961940 0.195090 0.191342
v 0.180240 0.980785 0.074658
v 0.353554 0.923880 0.146447
v 0.513280 0.831470 0.212608
v 0.653282 0.707107 0.270598
v 0.768178 0.555570 0.318190
v 0.853554 0.382683 0.353554
v 0.906127 0.195090 0.375331
v 0.162212 0.980785 0.108387
v 0.318190 0.923880 0.212608
v 0.461940 0.831470 0.308659
v 0.587938 0.707107 0.392848
v 0.691342 0.555570 0.461940
v 0.768178 0.382683 0.513280
v 0.815493 0.195090 0.544895
v 0.137950 0.980785 0.137950
v 0.270598 0.923880 0.270599
v 0.392848 0.831470 0.392848
v 0.500000 0.707107 0.500000
v 0.587938 0.555570 0.587938
v 0.653282 0.382683 0.653282
v 0.693520 0.195090 0.693520
v 0.108386 0.980785 0.162212
v 0.212608 0.923880 0.318190
v 0.308658 0.831470 0.461940
v 0.392848 0.707107 0.587938
v 0.461940 0.555570 0.691342
v 0.513280 0.382683 0.768178
v 0.544895 0.195090 0.815493
v 0.074658 0.980785 0.180240
v 0.146447 0.923880 0.353554
v 0.212608 0.831470 0.513280
v 0.270598 0.707107 0.653282
v 0.318190 0.555570 0.768178
v 0.353553 0.382683 0.853554
v 0.375330 0.195090 0.906128
v 0.038060 0.980785 0.191342
v 0.074658 0.923880 0.375331
v 0.108386 0.831470 0.544896
v 0.137950 0.707107 0.693520
v 0.162212 0.555570 0.815493
v 0.180240 0.382683 0.906128
v 0.191342 0.195090 0.961940
v -0.000000 0.980785 0.195091
v 0.000000 0.923880 0.382684
v 0.000000 0.831470 0.555571
v -0.000000 0.707107 0.707107
v -0.000000 0.555570 0.831470
v 0.000000 0.382683 0.923880
v -0.000000 0.195090 0.980785
v -0.038060 0.980785 0.191342
v -0.074658 0.923880 0.375331
v -0.108386 0.831470 0.544896
v -0.137950 0.707107 0.693520
v -0.162212 0.555570 0.815493
v -0.180240 0.382683 0.906128
v -0.191342 0.195090 0.961940
v -0.074658 0.980785 0.180240
v -0.146447 0.923880 0.353554
v -0.212608 0.831470 0.513280
v -0.270598 0.707107 0.653282
v -0.318190 0.555570 0.768178
v -0.353553 0.382683 0.853554
v -0.375330 0.195090 0.906127
v -0.000000 1.000000 0.000001
v -0.108386 0.980785 0.162212
v -0.212608 0.923880 0.318190
v -0.308658 0.831470 0.461940
v -0.392847 0.707107 0.587938
v -0.461940 0.555570 0.691342
v -0.513280 0.382683 0.768178
v -0.544895 0.195090 0.815493
v -0.137950 0.980785 0.137950
v -0.270598 0.923880 0.270598
v -0.392848 0.831470 0.392848
v -0.500000 0.707107 0.500000
v -0.587938 0.555570 0.587938
v -0.653281 0.382683 0.653282
v -0.693520 0.195090 0.693520
v -0.162212 0.980785 0.108387
v -0.318190 0.923880 0.212608
v -0.461940 0.831470 0.308659
v -0.587938 0.707107 0.392848
v -0.691342 0.555570 0.461940
v -0.768178 0.382683 0.513280
v -0.815493 0.195090 0.544895
v -0.180240 0.980785 0.074658
v -0.353553 0.923880 0.146447
v -0.513280 0.831470 0.212608
v -0.653281 0.707107 0.270598
v -0.768177 0.555570 0.318190
v -0.853553 0.382683 0.353554
v -0.906127 0.195090 0.375330
v -0.191342 0.980785 0.038061
v -0.375330 0.923880 0.074658
v -0.544895 0.831470 0.108387
v -0.693520 0.707107 0.137950
v -0.815493 0.555570 0.162212
v -0.906127 0.382683 0.180240
v -0.961939 0.195090 0.191342
v -0.195090 0.980785 0.000000
v -0.382683 0.923880 0.000000
v -0.555570 0.831470 0.000000
v -0.707107 0.707107 0.000000
v -0.831469 0.555570 0.000000
v -0.923879 0.382683 0.000000
v -0.980785 0.195090 0.000000
v -0.191342 0.980785 -0.038060
v -0.375330 0.923880 -0.074658
v -0.544895 0.831470 -0.108386
v -0.693520 0.707107 -0.137949
v -0.815493 0.555570 -0.162211
v -0.906127 0.382683 -0.180240
v -0.961939 0.195090 -0.191342
v -0.180240 0.980785 -0.074658
v -0.353553 0.923880 -0.146446
v -0.513280 0.831470 -0.212607
v -0.653281 0.707107 -0.270598
v -0.768177 0.555570 -0.318189
v -0.853553 0.382683 -0.353553
v -0.906127 0.195090 -0.375330
v -0.162212 0.980785 -0.108386
v -0.318190 0.923880 -0.212607
v -0.461940 0.831470 -0.308658
v -0.587938 0.707107 -0.392847
v -0.691341 0.555570 -0.461939
v -0.768178 0.382683 -0.513280
v -0.815493 0.195090 -0.544895
v -0.137950 0.980785 -0.137949
v -0.270598 0.923880 -0.270598
v -0.392847 0.831470 -0.392847
v -0.500000 0.707107 -0.500000
v -0.587937 0.555570 -0.587937
v -0.653281 0.382683 -0.653281
v -0.693519 0.195090 -0.693519
v -0.108386 0.980785 -0.162211
v -0.212607 0.923880 -0.318189
v -0.308658 0.831470 -0.461939
v -0.392847 0.707107 -0.587937
v -0.461939 0.555570 -0.691341
v -0.513280 0.382683 -0.768177
v -0.544895 0.195090 -0.815492
v -0.074658 0.980785 -0.180240
v -0.146447 0.923880 -0.353553
v -0.212607 0.831470 -0.513280
v -0.270598 0.707107 -0.653281
v -0.318189 0.555570 -0.768177
v -0.353553 0.382683 -0.853553
v -0.375330 0.195090 -0.906127
v -0.038060 0.980785 -0.191342
v -0.074658 0.923880 -0.375330
v -0.108386 0.831470 -0.544895
v -0.137950 0.707107 -0.693520
v -0.162211 0.555570 -0.815492
v -0.180240 0.382683 -0.906127
v -0.191341 0.195090 -0.961939
v 0.000000 0.980785 -0.195090
v 0.000000 0.923880 -0.382683
v 0.000000 0.831470 -0.555570
v 0.000000 0.707107 -0.707106
v 0.000000 0.555570 -0.831469
v 0.000000 0.382683 -0.923879
v 0.000000 0.195090 -0.980784
vn 0.0000 0.3805 -0.9247
vn 0.0000 0.5528 -0.8333
vn 0.1626 0.5528 -0.8173
vn 0.1804 0.3805 -0.9070
vn 0.0000 0.2903 -0.9569
vn 0.1867 0.2903 -0.9385
vn 0.0000 0.9796 -0.2010
vn 0.0000 1.0000 0.0000
vn 0.0392 0.9796 -0.1971
vn 0.0000 0.9217 -0.3879
vn 0.0757 0.9217 -0.3804
vn 0.0000 0.8286 -0.5598
vn 0.1092 0.8286 -0.5490
vn 0.0000 0.7040 -0.7101
vn 0.1385 0.7040 -0.6965
vn 0.2717 0.7040 -0.6561
vn 0.3189 0.5528 -0.7699
vn 0.3539 0.3805 -0.8544
vn 0.3662 0.2903 -0.8841
vn 0.0769 0.9796 -0.1856
vn 0.1484 0.9217 -0.3583
vn 0.2142 0.8286 -0.5171
vn 0.1116 0.9796 -0.1671
vn 0.2155 0.9217 -0.3225
vn 0.3110 0.8286 -0.4654
vn 0.3945 0.7040 -0.5904
vn 0.4630 0.5528 -0.6929
vn 0.5137 0.3805 -0.7689
vn 0.5316 0.2903 -0.7956
vn 0.5893 0.5528 -0.5893
vn 0.6539 0.3805 -0.6539
vn 0.6767 0.2903 -0.6767
vn 0.1421 0.9796 -0.1421
vn 0.2743 0.9217 -0.2743
vn 0.3958 0.8286 -0.3958
vn 0.5021 0.7040 -0.5021
vn 0.1671 0.9796 -0.1116
vn 0.3225 0.9217 -0.2155
vn 0.4654 0.8286 -0.3110
vn 0.5904 0.7040 -0.3945
vn 0.6929 0.5528 -0.4630
vn 0.7689 0.3805 -0.5137
vn 0.7956 0.2903 -0.5316
vn 0.7699 0.5528 -0.3189
vn 0.8544 0.3805 -0.3539
vn 0.8841 0.2903 -0.3662
vn 0.1856 0.9796 -0.0769
vn 0.3583 0.9217 -0.1484
vn 0.5171 0.8286 -0.2142
vn 0.6561 0.7040 -0.2717
vn 0.3804 0.9217 -0.0757
vn 0.5490 0.8286 -0.1092
vn 0.6965 0.7040 -0.1385
vn 0.8173 0.5528 -0.1626
vn 0.9070 0.3805 -0.1804
vn 0.9385 0.2903 -0.1867
vn 0.1971 0.9796 -0.0392
vn 0.9247 0.3805 0.0000
vn 0.9569 0.2903 0.0000
vn 0.2010 0.9796 0.0000
vn 0.3879 0.9217 0.0000
vn 0.5598 0.8286 0.0000
vn 0.7101 0.7040 0.0000
vn 0.8333 0.5528 0.0000
vn 0.3804 0.9217 0.0757
vn 0.5490 0.8286 0.1092
vn 0.6965 0.7040 0.1385
vn 0.8173 0.5528 0.1626
vn 0.9070 0.3805 0.1804
vn 0.9385 0.2903 0.1867
vn 0.1971 0.9796 0.0392
vn 0.8544 0.3805 0.3539
vn 0.8841 0.2903 0.3662
vn 0.1856 0.9796 0.0769
vn 0.3583 0.9217 0.1484
vn 0.5171 0.8286 0.2142
vn 0.6561 0.7040 0.2717
vn 0.7699 0.5528 0.3189
vn 0.4654 0.8286 0.3110
vn 0.5904 0.7040 0.3945
vn 0.6929 0.5528 0.4630
vn 0.7689 0.3805 0.5137
vn 0.7956 0.2903 0.5316
vn 0.1671 0.9796 0.1116
vn 0.3225 0.9217 0.2155
vn 0.1421 0.9796 0.1421
vn 0.2743 0.9217 0.2743
vn 0.3958 0.8286 0.3958
vn 0.5021 0.7040 0.5021
vn 0.5893 0.5528 0.5893
vn 0.6539 0.3805 0.6539
vn 0.6767 0.2903 0.6767
vn 0.3945 0.7040 0.5904
vn 0.4630 0.5528 0.6929
vn 0.5137 0.3805 0.7689
vn 0.5316 0.2903 0.7956
vn 0.1116 0.9796 0.1671
vn 0.2155 0.9217 0.3225
vn 0.3110 0.8286 0.4654
vn 0.0769 0.9796 0.1856
vn 0.1484 0.9217 0.3583
vn 0.2142 0.8286 0.5171
vn 0.2717 0.7040 0.6561
vn 0.3189 0.5528 0.7699
vn 0.3539 0.3805 0.8544
vn 0.3662 0.2903 0.8841
vn 0.1385 0.7040 0.6965
vn 0.1626 0.5528 0.8173
vn 0.1804 0.3805 0.9070
vn 0.1867 0.2903 0.9385
vn 0.0392 0.9796 0.1971
vn 0.0757 0.9217 0.3804
vn 0.1092 0.8286 0.5490
vn 0.0000 0.9796 0.2010
vn 0.0000 0.9217 0.3879
vn 0.0000 0.8286 0.5598
vn 0.0000 0.7040 0.7101
vn 0.0000 0.5528 0.8333
vn 0.0000 0.3805 0.9247
vn 0.0000 0.2903 0.9569
vn -0.1626 0.5528 0.8173
vn -0.1804 0.3805 0.9070
vn -0.1867 0.2903 0.9385
vn -0.0392 0.9796 0.1971
vn -0.0757 0.9217 0.3804
vn -0.1092 0.8286 0.5490
vn -0.1385 0.7040 0.6965
vn -0.0769 0.9796 0.1856
vn -0.1484 0.9217 0.3583
vn -0.2142 0.8286 0.5171
vn -0.2717 0.7040 0.6561
vn -0.3189 0.5528 0.7699
vn -0.3539 0.3805 0.8544
vn -0.3662 0.2903 0.8841
vn -0.4630 0.5528 0.6929
vn -0.5137 0.3805 0.7689
vn -0.5316 0.2903 0.7956
vn -0.1116 0.9796 0.1671
vn -0.2155 0.9217 0.3225
vn -0.3110 0.8286 0.4654
vn -0.3945 0.7040 0.5904
vn -0.2743 0.9217 0.2743
vn -0.3958 0.8286 0.3958
vn -0.5021 0.7040 0.5021
vn -0.5893 0.5528 0.5893
vn -0.6539 0.3805 0.6539
vn -0.6767 0.2903 0.6767
vn -0.1421 0.9796 0.1421
vn -0.7689 0.3805 0.5137
vn -0.7956 0.2903 0.5316
vn -0.1671 0.9796 0.1116
vn -0.3225 0.9217 0.2155
vn -0.4654 0.8286 0.3110
vn -0.5904 0.7040 0.3945
vn -0.6929 0.5528 0.4630
vn -0.5171 0.8286 0.2142
vn -0.6561 0.7040 0.2717
vn -0.7699 0.5528 0.3189
vn -0.8544 0.3805 0.3539
vn -0.8841 0.2903 0.3662
vn -0.1856 0.9796 0.0769
vn -0.3583 0.9217 0.1484
vn -0.1971 0.9796 0.0392
vn -0.3804 0.9217 0.0757
vn -0.5490 0.8286 0.1092
vn -0.6965 0.7040 0.1385
vn -0.8173 0.5528 0.1626
vn -0.9070 0.3805 0.1804
vn -0.9385 0.2903 0.1867
vn -0.5598 0.8286 0.0000
vn -0.7101 0.7040 0.0000
vn -0.8333 0.5528 0.0000
vn -0.9247 0.3805 0.0000
vn -0.9569 0.2903 0.0000
vn -0.2010 0.9796 0.0000
vn -0.3879 0.9217 0.0000
vn -0.1971 0.9796 -0.0392
vn -0.3804 0.9217 -0.0757
vn -0.5490 0.8286 -0.1092
vn -0.6965 0.7040 -0.1385
vn -0.8173 0.5528 -0.1626
vn -0.9070 0.3805 -0.1804
vn -0.9385 0.2903 -0.1867
vn -0.6561 0.7040 -0.2717
vn -0.7699 0.5528 -0.3189
vn -0.8544 0.3805 -0.3539
vn -0.8841 0.2903 -0.3662
vn -0.1856 0.9796 -0.0769
vn -0.3583 0.9217 -0.1484
vn -0.5171 0.8286 -0.2142
vn -0.1671 0.9796 -0.1116
vn -0.3225 0.9217 -0.2155
vn -0.4654 0.8286 -0.3110
vn -0.5904 0.7040 -0.3945
vn -0.6929 0.5528 -0.4630
vn -0.7689 0.3805 -0.5137
vn -0.7956 0.2903 -0.5316
vn -0.5021 0.7040 -0.5021
vn -0.5893 0.5528 -0.5893
vn -0.6539 0.3805 -0.6539
vn -0.6767 0.2903 -0.6767
vn -0.1421 0.9796 -0.1421
vn -0.2743 0.9217 -0.2743
vn -0.3958 0.8286 -0.3958
vn -0.1116 0.9796 -0.1671
vn -0.2155 0.9217 -0.3225
vn -0.3110 0.8286 -0.4654
vn -0.3945 0.7040 -0.5904
vn -0.4630 0.5528 -0.6929
vn -0.5137 0.3805 -0.7689
vn -0.5316 0.2903 -0.7956
vn -0.3189 0.5528 -0.7699
vn -0.3539 0.3805 -0.8544
vn -0.3662 0.2903 -0.8841
vn -0.0769 0.9796 -0.1856
vn -0.1484 0.9217 -0.3583
vn -0.2142 0.8286 -0.5171
vn -0.2717 0.7040 -0.6561
vn -0.0757 0.9217 -0.3804
vn -0.1092 0.8286 -0.5490
vn -0.1385 0.7040 -0.6965
vn -0.1626 0.5528 -0.8173
vn -0.1804 0.3805 -0.9070
vn -0.1867 0.2903 -0.9385
vn -0.0392 0.9796 -0.1971
usemtl None
s 1
f 224//1 223//2 5//3 6//4
f 225//5 224//1 6//4 7//6
f 219//7 127//8 1//9
f 220//10 219//7 1//9 2//11
f 221//12 220//10 2//11 3//13
f 222//14 221//12 3//13 4//15
f 223//2 222//14 4//15 5//3
f 5//3 4//15 11//16 12//17
f 6//4 5//3 12//17 13//18
f 7//6 6//4 13//18 14//19
f 1//9 127//8 8//20
f 2//11 1//9 8//20 9//21
f 3//13 2//11 9//21 10//22
f 4//15 3//13 10//22 11//16
f 9//21 8//20 15//23 16//24
f 10//22 9//21 16//24 17//25
f 11//16 10//22 17//25 18//26
f 12//17 11//16 18//26 19//27
f 13//18 12//17 19//27 20//28
f 14//19 13//18 20//28 21//29
f 8//20 127//8 15//23
f 20//28 19//27 26//30 27//31
f 21//29 20//28 27//31 28//32
f 15//23 127//8 22//33
f 16//24 15//23 22//33 23//34
f 17//25 16//24 23//34 24//35
f 18//26 17//25 24//35 25//36
f 19//27 18//26 25//36 26//30
f 23//34 22//33 29//37 30//38
f 24//35 23//34 30//38 31//39
f 25//36 24//35 31//39 32//40
f 26//30 25//36 32//40 33//41
f 27//31 26//30 33//41 34//42
f 28//32 27//31 34//42 35//43
f 22//33 127//8 29//37
f 34//42 33//41 40//44 41//45
f 35//43 34//42 41//45 42//46
f 29//37 127//8 36//47
f 30//38 29//37 36//47 37//48
f 31//39 30//38 37//48 38//49
f 32//40 31//39 38//49 39//50
f 33//41 32//40 39//50 40//44
f 38//49 37//48 44//51 45//52
f 39//50 38//49 45//52 46//53
f 40//44 39//50 46//53 47//54
f 41//45 40//44 47//54 48//55
f 42//46 41//45 48//55 49//56
f 36//47 127//8 43//57
f 37//48 36//47 43//57 44//51
f 49//56 48//55 55//58 56//59
f 43//57 127//8 50//60
f 44//51 43//57 50//60 51//61
f 45//52 44//51 51//61 52//62
f 46//53 45//52 52//62 53//63
f 47//54 46//53 53//63 54//64
f 48//55 47//54 54//64 55//58
f 52//62 51//61 58//65 59//66
f 53//63 52//62 59//66 60//67
f 54//64 53//63 60//67 61//68
f 55//58 54//64 61//68 62//69
f 56//59 55//58 62//69 63//70
f 50//60 127//8 57//71
f 51//61 50//60 57//71 58//65
f 63//70 62//69 69//72 70//73
f 57//71 127//8 64//74
f 58//65 57//71 64//74 65//75
f 59//66 58//65 65//75 66//76
f 60//67 59//66 66//76 67//77
f 61//68 60//67 67//77 68//78
f 62//69 61//68 68//78 69//72
f 67//77 66//76 73//79 74//80
f 68//78 67//77 74//80 75//81
f 69//72 68//78 75//81 76//82
f 70//73 69//72 76//82 77//83
f 64//74 127//8 71//84
f 65//75 64//74 71//84 72//85
f 66//76 65//75 72//85 73//79
f 71//84 127//8 78//86
f 72//85 71//84 78//86 79//87
f 73//79 72//85 79//87 80//88
f 74//80 73//79 80//88 81//89
f 75//81 74//80 81//89 82//90
f 76//82 75//81 82//90 83//91
f 77//83 76//82 83//91 84//92
f 82//90 81//89 88//93 89//94
f 83//91 82//90 89//94 90//95
f 84//92 83//91 90//95 91//96
f 78//86 127//8 85//97
f 79//87 78//86 85//97 86//98
f 80//88 79//87 86//98 87//99
f 81//89 80//88 87//99 88//93
f 85//97 127//8 92//100
f 86//98 85//97 92//100 93//101
f 87//99 86//98 93//101 94//102
f 88//93 87//99 94//102 95//103
f 89//94 88//93 95//103 96//104
f 90//95 89//94 96//104 97//105
f 91//96 90//95 97//105 98//106
f 96//104 95//103 102//107 103//108
f 97//105 96//104 103//108 104//109
f 98//106 97//105 104//109 105//110
f 92//100 127//8 99//111
f 93//101 92//100 99//111 100//112
f 94//102 93//101 100//112 101//113
f 95//103 94//102 101//113 102//107
f 100//112 99//111 106//114 107//115
f 101//113 100//112 107//115 108//116
f 102//107 101//113 108//116 109//117
f 103//108 102//107 109//117 110//118
f 104//109 103//108 110//118 111//119
f 105//110 104//109 111//119 112//120
f 99//111 127//8 106//114
f 111//119 110//118 117//121 118//122
f 112//120 111//119 118//122 119//123
f 106//114 127//8 113//124
f 107//115 106//114 113//124 114//125
f 108//116 107//115 114//125 115//126
f 109//117 108//116 115//126 116//127
f 110//118 109//117 116//127 117//121
f 114//125 113//124 120//128 121//129
f 115//126 114//125 121//129 122//130
f 116//127 115//126 122//130 123//131
f 117//121 116//127 123//131 124//132
f 118//122 117//121 124//132 125//133
f 119//123 118//122 125//133 126//134
f 113//124 127//8 120//128
f 125//133 124//132 132//135 133//136
f 126//134 125//133 133//136 134//137
f 120//128 127//8 128//138
f 121//129 120//128 128//138 129//139
f 122//130 121//129 129//139 130//140
f 123//131 122//130 130//140 131//141
f 124//132 123//131 131//141 132//135
f 130//140 129//139 136//142 137//143
f 131//141 130//140 137//143 138//144
f 132//135 131//141 138//144 139//145
f 133//136 132//135 139//145 140//146
f 134//137 133//136 140//146 141//147
f 128//138 127//8 135//148
f 129//139 128//138 135//148 136//142
f 141//147 140//146 147//149 148//150
f 135//148 127//8 142//151
f 136//142 135//148 142//151 143//152
f 137//143 136//142 143//152 144//153
f 138//144 137//143 144//153 145//154
f 139//145 138//144 145//154 146//155
f 140//146 139//145 146//155 147//149
f 145//154 144//153 151//156 152//157
f 146//155 145//154 152//157 153//158
f 147//149 146//155 153//158 154//159
f 148//150 147//149 154//159 155//160
f 142//151 127//8 149//161
f 143//152 142//151 149//161 150//162
f 144//153 143//152 150//162 151//156
f 149//161 127//8 156//163
f 150//162 149//161 156//163 157//164
f 151//156 150//162 157//164 158//165
f 152//157 151//156 158//165 159//166
f 153//158 152//157 159//166 160//167
f 154//159 153//158 160//167 161//168
f 155//160 154//159 161//168 162//169
f 159//166 158//165 165//170 166//171
f 160//167 159//166 166//171 167//172
f 161//168 160//167 167//172 168//173
f 162//169 161//168 168//173 169//174
f 156//163 127//8 163//175
f 157//164 156//163 163//175 164//176
f 158//165 157//164 164//176 165//170
f 163//175 127//8 170//177
f 164//176 163//175 170//177 171//178
f 165//170 164//176 171//178 172//179
f 166//171 165//170 172//179 173//180
f 167//172 166//171 173//180 174//181
f 168//173 167//172 174//181 175//182
f 169//174 168//173 175//182 176//183
f 174//181 173//180 180//184 181//185
f 175//182 174//181 181//185 182//186
f 176//183 175//182 182//186 183//187
f 170//177 127//8 177//188
f 171//178 170//177 177//188 178//189
f 172//179 171//178 178//189 179//190
f 173//180 172//179 179//190 180//184
f 177//188 127//8 184//191
f 178//189 177//188 184//191 185//192
f 179//190 178//189 185//192 186//193
f 180//184 179//190 186//193 187//194
f 181//185 180//184 187//194 188//195
f 182//186 181//185 188//195 189//196
f 183//187 182//186 189//196 190//197
f 188//195 187//194 194//198 195//199
f 189//196 188//195 195//199 196//200
f 190//197 189//196 196//200 197//201
f 184//191 127//8 191//202
f 185//192 184//191 191//202 192//203
f 186//193 185//192 192//203 193//204
f 187//194 186//193 193//204 194//198
f 192//203 191//202 198//205 199//206
f 193//204 192//203 199//206 200//207
f 194//198 193//204 200//207 201//208
f 195//199 194//198 201//208 202//209
f 196//200 195//199 202//209 203//210
f 197//201 196//200 203//210 204//211
f 191//202 127//8 198//205
f 203//210 202//209 209//212 210//213
f 204//211 203//210 210//213 211//214
f 198//205 127//8 205//215
f 199//206 198//205 205//215 206//216
f 200//207 199//206 206//216 207//217
f 201//208 200//207 207//217 208//218
f 202//209 201//208 208//218 209//212
f 207//217 206//216 213//219 214//220
f 208//218 207//217 214//220 215//221
f 209//212 208//218 215//221 216//222
f 210//213 209//212 216//222 217//223
f 211//214 210//213 217//223 218//224
f 205//215 127//8 212//225
f 206//216 205//215 212//225 213//219
f 218//224 217//223 224//1 225//5
f 212//225 127//8 219//7
f 213//219 212//225 219//7 220//10
f 214//220 213//219 220//10 221//12
f 215//221 214//220 221//12 222//14
f 216//222 215//221 222//14 223//2
f 217//223 216//222 223//2 224//1
